{"glyphs":{":":{"x_min":0,"x_max":258,"ha":258,"o":"m 129 418 q 110 418 96 430 q 81 442 81 473 q 81 504 96 516 q 110 527 129 527 q 148 527 162 516 q 176 504 176 473 q 176 442 162 430 q 148 418 129 418 z m 129 -6 q 110 -6 96 6 q 81 18 81 49 q 81 80 96 92 q 110 104 129 104 q 148 104 162 92 q 176 80 176 49 q 176 18 162 6 q 148 -6 129 -6 z"},"$":{"x_min":0,"x_max":559,"ha":559,"o":"m 259 -79 l 259 40 q 190 40 148 60 q 106 79 86 110 q 67 140 67 173 q 67 230 116 230 q 120 190 132 154 q 144 119 174 97 q 204 75 259 75 l 259 346 q 174 384 136 425 q 97 466 97 532 q 97 597 141 637 q 185 677 259 684 l 259 760 l 299 760 l 299 685 q 358 684 394 668 q 430 652 446 626 q 463 600 463 570 q 463 542 449 528 q 435 513 410 513 q 410 548 401 578 q 392 608 368 628 q 344 647 299 649 l 299 394 q 394 355 436 312 q 479 268 479 202 q 479 128 430 87 q 382 46 299 41 l 299 -79 z m 259 412 l 259 648 q 210 641 184 610 q 159 580 159 539 q 159 488 184 462 q 209 436 259 412 z m 299 77 q 355 82 386 114 q 417 146 417 193 q 417 238 392 270 q 366 301 299 329 z"},"?":{"x_min":0,"x_max":447,"ha":447,"o":"m 186 186 l 182 346 q 269 384 306 436 q 342 488 342 556 q 342 614 310 650 q 278 686 216 686 q 168 686 140 667 q 112 648 100 618 q 89 588 89 556 q 65 556 50 570 q 34 584 34 610 q 34 636 52 662 q 69 688 108 706 q 146 724 210 724 q 298 724 352 676 q 407 627 407 547 q 407 464 360 410 q 314 357 228 318 l 225 186 z m 204 -6 q 184 -6 170 6 q 156 18 156 49 q 156 80 170 92 q 184 104 204 104 q 224 104 238 92 q 251 80 251 49 q 251 18 238 6 q 224 -6 204 -6 z"},"<":{"x_min":0,"x_max":559,"ha":559,"o":"m 494 114 l 65 342 l 65 373 l 494 602 l 494 552 l 129 357 l 494 164 z"},"'":{"x_min":0,"x_max":181,"ha":181,"o":"m 73 488 l 52 714 l 128 714 l 108 488 z"},"=":{"x_min":0,"x_max":559,"ha":559,"o":"m 66 437 l 66 482 l 492 482 l 492 437 z m 66 232 l 66 277 l 492 277 l 492 232 z"},"a":{"x_min":0,"x_max":542,"ha":542,"o":"m 201 -10 q 138 -10 96 28 q 53 67 53 148 q 53 228 110 265 q 166 302 283 307 l 366 310 l 366 372 q 366 411 358 442 q 351 472 328 489 q 304 506 256 506 q 212 506 190 492 q 167 477 159 452 q 151 426 151 391 q 123 391 109 404 q 95 416 95 446 q 95 488 136 516 q 178 544 258 544 q 348 544 389 504 q 430 463 430 379 l 430 112 q 430 64 442 48 q 454 32 491 32 l 495 32 l 495 0 l 383 0 l 371 94 l 366 94 q 350 69 328 45 q 307 21 276 6 q 246 -10 201 -10 z m 216 35 q 260 35 294 56 q 328 76 347 110 q 366 143 366 181 l 366 277 l 292 274 q 193 270 156 237 q 118 204 118 145 q 118 96 142 66 q 165 35 216 35 z"},"L":{"x_min":0,"x_max":605,"ha":605,"o":"m 43 0 l 43 32 l 70 32 q 105 32 122 46 q 140 59 140 111 l 140 603 q 140 655 122 668 q 105 682 70 682 l 43 682 l 43 714 l 304 714 l 304 682 l 278 682 q 244 682 226 668 q 208 655 208 605 l 208 39 l 438 39 q 480 39 495 61 q 510 83 513 119 l 521 210 l 558 210 l 551 0 z"},"3":{"x_min":0,"x_max":559,"ha":559,"o":"m 250 -10 q 184 -10 142 6 q 101 22 82 48 q 62 73 62 101 q 62 126 74 139 q 87 152 106 152 q 106 99 142 65 q 177 31 250 31 q 296 31 334 48 q 372 66 394 103 q 416 140 416 198 q 416 270 366 311 q 315 352 218 352 l 190 352 l 190 391 l 217 391 q 293 391 342 434 q 392 477 392 553 q 392 616 360 650 q 327 685 264 685 q 195 685 165 645 q 135 605 135 545 q 110 545 94 556 q 78 568 78 596 q 78 629 98 658 q 119 687 160 706 q 202 724 265 724 q 354 724 408 681 q 461 638 461 561 q 461 509 439 472 q 417 435 382 412 q 346 389 305 379 q 334 376 366 366 q 397 355 424 334 q 452 314 469 280 q 486 247 486 197 q 486 124 452 78 q 417 32 362 11 q 308 -10 250 -10 z"},";":{"x_min":0,"x_max":258,"ha":258,"o":"m 129 418 q 110 418 96 430 q 81 442 81 473 q 81 504 96 516 q 110 527 129 527 q 148 527 162 516 q 176 504 176 473 q 176 442 162 430 q 148 418 129 418 z m 45 -154 l 45 -121 q 92 -107 113 -80 q 134 -52 134 -26 q 134 -12 125 -3 q 116 6 104 14 q 91 21 82 30 q 73 40 73 57 q 73 79 86 92 q 99 104 120 104 q 146 104 166 84 q 186 64 186 23 q 186 -35 154 -83 q 122 -131 45 -154 z"},"J":{"x_min":0,"x_max":351,"ha":351,"o":"m 4 -240 l 4 -203 l 13 -203 q 85 -203 117 -160 q 149 -116 149 -13 l 149 605 q 149 655 132 668 q 114 682 79 682 l 53 682 l 53 714 l 314 714 l 314 682 l 287 682 q 252 682 234 668 q 217 655 217 603 l 217 -12 q 217 -139 164 -190 q 112 -240 15 -240 z"},"V":{"x_min":0,"x_max":661,"ha":661,"o":"m 303 0 l 83 631 q 72 663 59 672 q 46 682 15 682 l 0 682 l 0 714 l 248 714 l 248 682 l 213 682 q 179 682 167 672 q 155 663 155 643 q 155 631 162 612 q 168 592 172 578 l 284 254 q 303 199 316 154 q 329 109 340 69 q 350 110 363 153 q 376 196 395 254 l 505 574 q 510 587 516 608 q 523 630 523 643 q 523 663 510 672 q 496 682 462 682 l 430 682 l 430 714 l 661 714 l 661 682 l 640 682 q 618 682 606 678 q 594 673 586 660 q 578 646 569 618 l 356 0 z"},"\"":{"x_min":0,"x_max":351,"ha":351,"o":"m 243 488 l 222 714 l 298 714 l 278 488 z m 73 488 l 52 714 l 128 714 l 108 488 z"},"7":{"x_min":0,"x_max":559,"ha":559,"o":"m 187 0 l 443 658 l 149 658 q 122 658 110 647 q 97 636 95 606 l 91 550 l 59 550 l 64 714 l 503 714 l 503 688 l 241 0 z"},"S":{"x_min":0,"x_max":519,"ha":519,"o":"m 253 -10 q 156 -10 108 30 q 60 71 60 129 q 60 153 73 168 q 86 183 109 183 q 110 116 146 72 q 183 28 258 28 q 329 28 366 65 q 403 102 403 166 q 403 204 388 232 q 372 261 338 286 q 304 310 246 337 q 188 364 150 393 q 113 422 96 460 q 78 497 78 550 q 78 602 103 641 q 128 680 172 702 q 217 724 275 724 q 355 724 402 690 q 449 657 449 613 q 449 587 435 574 q 421 560 396 560 q 396 615 366 650 q 337 685 273 685 q 208 685 174 649 q 141 613 141 557 q 141 516 156 488 q 171 460 202 438 q 234 416 285 392 q 338 366 379 338 q 420 311 444 274 q 468 236 468 181 q 468 94 412 42 q 355 -10 253 -10 z"},"}":{"x_min":0,"x_max":420,"ha":420,"o":"m 62 -130 l 62 -95 l 90 -95 q 135 -95 154 -67 q 174 -39 174 14 l 174 185 q 174 298 281 315 l 281 317 q 229 325 202 358 q 174 392 174 447 l 174 616 q 174 670 154 698 q 135 725 90 725 l 62 725 l 62 760 l 111 760 q 174 760 207 723 q 240 686 240 619 l 240 450 q 240 404 256 380 q 272 355 299 345 q 326 335 359 333 l 359 299 q 326 296 299 286 q 272 276 256 252 q 240 227 240 181 l 240 12 q 240 -55 207 -92 q 174 -130 111 -130 z"},"Z":{"x_min":0,"x_max":549,"ha":549,"o":"m 32 0 l 32 32 l 415 675 l 165 675 q 123 675 110 656 q 96 636 92 599 l 89 557 l 51 557 l 56 714 l 496 714 l 496 678 l 114 39 l 394 39 q 436 39 450 58 q 464 78 467 114 l 471 157 l 508 157 l 503 0 z"},"x":{"x_min":0,"x_max":539,"ha":539,"o":"m 1 0 l 1 32 l 19 32 q 42 32 56 36 q 70 41 83 54 q 96 66 112 89 l 243 277 l 122 453 q 101 482 84 493 q 68 504 41 504 l 23 504 l 23 536 l 243 536 l 243 504 l 231 504 q 200 504 190 498 q 181 492 181 482 q 181 473 188 461 q 195 449 208 430 l 282 321 l 347 422 q 360 442 368 456 q 375 471 375 482 q 375 495 364 500 q 352 504 326 504 l 303 504 l 303 536 l 511 536 l 511 504 l 498 504 q 478 504 465 500 q 452 496 440 484 q 427 472 410 447 l 303 291 l 448 83 q 469 52 484 42 q 500 32 525 32 l 538 32 l 538 0 l 311 0 l 311 32 l 334 32 q 363 32 374 38 q 385 44 385 56 q 385 66 378 80 q 370 93 351 120 l 264 248 l 177 116 q 166 100 157 84 q 148 67 148 55 q 148 43 159 38 q 170 32 201 32 l 228 32 l 228 0 z"},")":{"x_min":0,"x_max":315,"ha":315,"o":"m 43 -122 l 43 -86 q 97 -57 128 -14 q 160 30 176 84 q 191 138 196 197 q 200 256 200 316 q 200 376 196 436 q 191 495 176 549 q 161 603 129 646 q 97 690 43 717 l 43 753 q 124 722 174 668 q 224 614 246 529 q 269 444 269 316 q 269 188 246 102 q 224 17 174 -36 q 124 -90 43 -122 z"},"&":{"x_min":0,"x_max":708,"ha":708,"o":"m 254 -10 q 145 -10 88 48 q 30 106 30 197 q 30 280 72 328 q 114 375 186 405 q 152 446 130 484 q 108 522 108 578 q 108 618 126 651 q 144 684 184 704 q 224 724 288 724 q 348 724 386 704 q 423 684 440 652 q 457 620 457 582 q 457 515 415 472 q 373 430 277 396 l 475 184 q 494 233 502 286 q 509 340 509 382 l 509 418 l 667 418 l 667 386 l 648 386 q 608 386 586 376 q 565 366 556 322 q 548 283 536 238 q 524 193 505 153 l 595 57 q 609 42 628 37 q 648 32 689 32 l 701 32 l 701 0 l 564 0 l 472 99 q 438 55 386 22 q 334 -10 254 -10 z m 248 426 q 325 451 360 488 q 396 525 396 581 q 396 624 370 655 q 343 686 287 686 q 231 686 202 656 q 172 627 172 580 q 172 534 190 502 q 209 469 248 426 z m 258 32 q 325 32 370 60 q 416 88 445 128 l 217 374 q 184 360 156 338 q 129 316 112 282 q 96 249 96 199 q 96 120 141 76 q 186 32 258 32 z"},"_":{"x_min":0,"x_max":459,"ha":459,"o":"m -5 -127 l -5 -83 l 464 -83 l 464 -127 z"},"v":{"x_min":0,"x_max":564,"ha":564,"o":"m 248 0 l 82 453 q 74 476 66 486 q 58 497 44 500 q 30 504 6 504 l 6 536 l 220 536 l 220 504 l 202 504 q 172 504 160 496 q 149 487 149 468 q 149 458 154 441 q 160 424 166 408 l 237 210 q 252 170 268 124 q 283 78 291 51 q 297 70 312 112 q 328 154 348 207 l 414 386 q 425 416 432 436 q 438 455 438 468 q 438 487 426 496 q 413 504 381 504 l 363 504 l 363 536 l 559 536 l 559 504 l 551 504 q 529 504 517 500 q 505 495 496 482 q 488 468 478 440 l 312 0 z"},"O":{"x_min":0,"x_max":717,"ha":717,"o":"m 358 -10 q 257 -10 190 35 q 123 80 90 162 q 57 245 57 359 q 57 472 90 554 q 124 636 191 680 q 258 725 359 725 q 510 725 584 626 q 659 528 659 358 q 659 247 626 164 q 593 82 526 36 q 459 -10 358 -10 z m 358 31 q 440 31 490 70 q 540 109 562 182 q 585 256 585 358 q 585 461 563 534 q 541 607 492 646 q 442 684 359 684 q 240 684 185 598 q 130 512 130 358 q 130 204 185 118 q 240 31 358 31 z"},"(":{"x_min":0,"x_max":315,"ha":315,"o":"m 283 -122 q 202 -90 152 -36 q 103 17 80 102 q 57 188 57 316 q 57 444 80 529 q 103 614 152 668 q 202 722 283 753 l 283 717 q 229 690 198 646 q 166 603 150 549 q 135 495 130 436 q 126 376 126 316 q 126 256 130 197 q 135 138 150 84 q 166 30 198 -14 q 229 -57 283 -86 z"},"C":{"x_min":0,"x_max":585,"ha":585,"o":"m 344 -10 q 249 -10 185 36 q 121 81 89 164 q 57 246 57 358 q 57 469 90 552 q 124 634 190 679 q 256 724 353 724 q 456 724 504 690 q 551 656 551 611 q 551 584 535 569 q 519 554 494 554 q 494 590 481 620 q 468 649 436 666 q 405 684 350 684 q 236 684 183 598 q 130 511 130 358 q 130 261 154 189 q 177 117 226 77 q 276 37 352 37 q 426 37 467 64 q 508 91 530 127 q 546 117 546 95 q 546 76 524 52 q 503 27 458 8 q 414 -10 344 -10 z"},"W":{"x_min":0,"x_max":1035,"ha":1035,"o":"m 290 0 l 100 631 q 90 663 76 672 q 63 682 32 682 l 14 682 l 14 714 l 260 714 l 260 682 l 229 682 q 196 682 184 672 q 171 663 171 643 q 171 634 174 622 q 178 610 184 591 l 291 232 q 304 186 314 149 q 323 112 333 72 q 341 112 350 152 q 358 193 371 238 l 499 710 l 551 710 l 681 244 q 694 194 705 151 q 716 108 724 72 q 731 106 742 148 q 752 190 766 236 l 868 582 q 873 601 878 617 q 882 633 882 643 q 882 663 869 672 q 856 682 821 682 l 792 682 l 792 714 l 1022 714 l 1022 682 l 999 682 q 968 682 954 671 q 940 660 928 617 l 745 0 l 683 0 l 515 610 l 353 0 z"},"A":{"x_min":0,"x_max":678,"ha":678,"o":"m -2 0 l -2 32 l 19 32 q 40 32 52 36 q 64 41 72 54 q 80 68 90 96 l 312 714 l 368 714 l 592 83 q 603 51 616 42 q 629 32 661 32 l 678 32 l 678 0 l 435 0 l 435 32 l 463 32 q 496 32 508 42 q 520 51 520 71 q 520 83 514 104 q 508 124 503 136 l 465 244 l 190 244 l 153 140 q 148 127 142 106 q 135 84 135 71 q 135 51 148 42 q 162 32 196 32 l 233 32 l 233 0 z m 204 283 l 451 283 l 382 483 q 367 525 352 570 q 338 614 329 648 q 322 618 308 575 q 293 532 279 492 z"},"f":{"x_min":0,"x_max":347,"ha":347,"o":"m 31 0 l 31 32 l 53 32 q 79 32 96 36 q 112 41 120 57 q 128 73 128 107 l 128 499 l 35 499 l 35 536 l 128 536 l 128 592 q 128 678 172 724 q 216 771 293 771 q 358 771 387 750 q 416 728 416 699 q 416 675 400 662 q 384 650 362 650 q 362 683 347 708 q 332 734 288 734 q 238 734 215 698 q 192 662 192 597 l 192 536 l 334 536 l 334 499 l 192 499 l 192 107 q 192 73 200 57 q 208 41 224 36 q 241 32 267 32 l 312 32 l 312 0 z"},"Q":{"x_min":0,"x_max":717,"ha":717,"o":"m 549 -225 q 512 -225 476 -215 q 439 -205 408 -182 q 378 -158 358 -116 q 337 -74 332 -9 q 195 1 126 97 q 57 193 57 359 q 57 470 90 552 q 123 634 190 680 q 256 725 359 725 q 510 725 584 626 q 659 528 659 358 q 659 200 594 104 q 529 9 404 -7 q 412 -104 452 -146 q 492 -188 560 -188 l 576 -188 l 576 -225 z m 358 31 q 480 31 532 118 q 585 204 585 358 q 585 461 563 534 q 541 607 492 646 q 442 684 359 684 q 277 684 226 644 q 176 604 153 530 q 130 457 130 358 q 130 204 184 118 q 239 31 358 31 z"},"w":{"x_min":0,"x_max":866,"ha":866,"o":"m 213 0 l 81 451 q 70 484 58 494 q 46 504 16 504 l 4 504 l 4 536 l 216 536 l 216 504 l 196 504 q 168 504 157 497 q 146 490 146 472 q 146 464 150 447 q 155 430 158 416 l 213 222 q 220 198 228 166 q 235 135 242 106 q 249 76 252 60 l 255 60 q 258 76 266 104 q 275 133 286 164 q 296 196 304 220 l 412 534 l 462 534 l 566 231 q 574 207 586 174 q 597 140 606 108 q 616 76 620 58 l 623 58 q 628 83 640 125 q 652 167 669 221 l 728 410 q 733 426 737 442 q 741 458 741 468 q 741 487 729 496 q 717 504 688 504 l 667 504 l 667 536 l 864 536 l 864 504 l 847 504 q 817 504 804 492 q 792 481 779 439 l 643 0 l 583 0 l 427 460 l 271 0 z"},"-":{"x_min":0,"x_max":310,"ha":310,"o":"m 25 246 l 25 300 l 285 300 l 285 246 z"},"E":{"x_min":0,"x_max":606,"ha":606,"o":"m 43 0 l 43 32 l 70 32 q 105 32 122 45 q 140 58 140 109 l 140 603 q 140 655 122 668 q 105 682 70 682 l 43 682 l 43 714 l 518 714 l 524 544 l 487 544 l 482 599 q 479 636 464 656 q 449 675 407 675 l 208 675 l 208 393 l 450 393 l 450 355 l 208 355 l 208 39 l 436 39 q 480 39 496 58 q 511 78 515 115 l 521 170 l 558 170 l 551 0 z"},"s":{"x_min":0,"x_max":430,"ha":430,"o":"m 208 -10 q 129 -10 92 21 q 54 52 54 96 q 54 128 69 140 q 84 152 98 152 q 98 98 122 63 q 146 28 211 28 q 267 28 296 57 q 326 86 326 130 q 326 154 317 172 q 308 190 284 206 q 260 223 215 244 q 160 271 127 294 q 94 317 78 344 q 63 372 63 412 q 63 474 108 509 q 153 544 228 544 q 298 544 331 514 q 364 485 364 449 q 364 426 352 412 q 339 398 315 398 q 315 455 291 481 q 267 507 220 507 q 168 507 144 482 q 120 458 120 420 q 120 377 150 352 q 181 328 245 299 q 297 275 327 252 q 357 230 370 203 q 382 176 382 140 q 382 69 334 30 q 286 -10 208 -10 z"},">":{"x_min":0,"x_max":559,"ha":559,"o":"m 65 114 l 65 164 l 428 357 l 65 552 l 65 602 l 494 373 l 494 342 z"},"l":{"x_min":0,"x_max":285,"ha":285,"o":"m 10 0 l 10 32 l 31 32 q 74 32 92 44 q 111 56 111 105 l 111 655 q 111 704 92 716 q 74 728 36 728 l 10 728 l 10 760 l 175 760 l 175 105 q 175 56 193 44 q 211 32 254 32 l 275 32 l 275 0 z"},"8":{"x_min":0,"x_max":559,"ha":559,"o":"m 274 -10 q 166 -10 112 42 q 57 93 57 174 q 57 248 102 292 q 148 336 221 368 q 158 400 120 442 q 81 484 81 552 q 81 600 104 639 q 127 678 172 701 q 216 724 283 724 q 377 724 426 676 q 476 628 476 557 q 476 490 439 450 q 402 410 334 379 q 416 340 459 295 q 502 250 502 179 q 502 88 440 39 q 378 -10 274 -10 z m 292 397 q 360 426 387 463 q 414 500 414 558 q 414 590 401 620 q 388 649 358 668 q 329 687 280 687 q 216 687 180 652 q 145 616 145 558 q 145 498 182 464 q 219 430 292 397 z m 278 26 q 351 26 396 63 q 440 100 440 167 q 440 204 424 234 q 409 265 370 292 q 332 320 263 349 q 195 323 159 278 q 123 232 123 172 q 123 104 162 65 q 201 26 278 26 z"},"\\":{"x_min":0,"x_max":288,"ha":288,"o":"m 243 -121 l 0 760 l 45 760 l 288 -121 z"},"e":{"x_min":0,"x_max":514,"ha":514,"o":"m 277 -10 q 176 -10 118 61 q 59 132 59 263 q 59 404 114 474 q 168 544 268 544 q 358 544 410 481 q 462 418 462 299 l 462 268 l 125 268 q 126 150 168 93 q 211 36 286 36 q 340 36 376 59 q 411 82 429 114 q 443 107 443 87 q 443 68 424 46 q 406 23 369 6 q 332 -10 277 -10 z m 127 308 l 394 308 q 394 396 364 450 q 333 503 266 503 q 198 503 165 452 q 132 400 127 308 z"},"b":{"x_min":0,"x_max":594,"ha":594,"o":"m 336 -10 q 278 -10 238 16 q 199 42 177 88 l 173 88 l 162 0 l 19 0 l 19 32 l 33 32 q 76 32 94 44 q 113 56 113 105 l 113 655 q 113 704 94 716 q 76 728 37 728 l 19 728 l 19 760 l 177 760 l 177 569 q 177 550 176 524 q 176 498 175 473 q 174 448 172 431 l 176 431 q 197 484 236 514 q 276 545 339 545 q 436 545 486 479 q 535 413 535 268 q 535 126 482 58 q 430 -10 336 -10 z m 329 36 q 400 36 434 97 q 469 158 469 270 q 469 387 436 443 q 404 499 328 499 q 246 499 211 440 q 176 381 176 269 q 176 158 209 97 q 242 36 329 36 z"},"%":{"x_min":0,"x_max":891,"ha":891,"o":"m 206 280 q 124 280 88 340 q 51 401 51 503 q 51 604 88 664 q 125 724 207 724 q 285 724 323 664 q 361 604 361 503 q 361 403 324 342 q 287 280 206 280 z m 232 0 l 604 714 l 654 714 l 283 0 z m 205 314 q 258 314 278 366 q 299 417 299 503 q 299 593 278 642 q 256 690 206 690 q 155 690 134 638 q 113 586 113 503 q 113 413 134 364 q 156 314 205 314 z m 684 -10 q 602 -10 566 50 q 529 111 529 213 q 529 314 566 374 q 603 434 685 434 q 763 434 801 374 q 839 314 839 213 q 839 113 802 52 q 765 -10 684 -10 z m 683 24 q 736 24 756 76 q 777 127 777 213 q 777 303 756 352 q 734 400 684 400 q 633 400 612 348 q 591 296 591 213 q 591 123 612 74 q 634 24 683 24 z"},"m":{"x_min":0,"x_max":920,"ha":920,"o":"m 33 0 l 33 32 l 50 32 q 79 32 96 36 q 113 41 120 56 q 127 72 127 105 l 127 433 q 127 481 110 492 q 93 504 55 504 l 45 504 l 45 536 l 180 536 l 188 450 l 193 450 q 218 503 256 524 q 295 544 344 544 q 402 544 437 520 q 472 495 487 449 l 493 449 q 538 544 650 544 q 809 544 809 355 l 809 105 q 809 72 816 56 q 824 41 841 36 q 858 32 886 32 l 892 32 l 892 0 l 745 0 l 745 354 q 745 423 719 460 q 693 498 631 498 q 584 498 556 476 q 527 455 514 420 q 502 384 502 340 l 502 105 q 502 72 509 56 q 516 41 533 36 q 550 32 579 32 l 587 32 l 587 0 l 438 0 l 438 354 q 438 423 412 460 q 386 498 322 498 q 276 498 247 474 q 218 450 204 411 q 191 372 191 326 l 191 102 q 191 54 210 43 q 228 32 271 32 l 282 32 l 282 0 z"},"#":{"x_min":0,"x_max":559,"ha":559,"o":"m 85 0 l 125 210 l 25 210 l 25 254 l 133 254 l 173 466 l 57 466 l 57 510 l 182 510 l 219 714 l 265 714 l 227 510 l 384 510 l 422 714 l 468 714 l 429 510 l 534 510 l 534 466 l 421 466 l 381 254 l 502 254 l 502 210 l 372 210 l 333 0 l 288 0 l 327 210 l 170 210 l 131 0 z m 179 254 l 336 254 l 375 466 l 219 466 z"},",":{"x_min":0,"x_max":225,"ha":225,"o":"m 30 -154 l 30 -121 q 76 -107 98 -80 q 119 -52 119 -26 q 119 -12 110 -3 q 100 6 88 14 q 76 21 66 30 q 57 40 57 57 q 57 79 70 92 q 83 104 105 104 q 131 104 150 84 q 170 64 170 23 q 170 -35 138 -83 q 106 -131 30 -154 z"},"n":{"x_min":0,"x_max":632,"ha":632,"o":"m 33 0 l 33 32 l 47 32 q 90 32 108 44 q 127 56 127 105 l 127 433 q 127 481 109 492 q 91 504 53 504 l 38 504 l 38 536 l 180 536 l 188 452 l 193 452 q 224 507 262 526 q 301 544 353 544 q 435 544 477 498 q 519 452 519 353 l 519 105 q 519 72 526 56 q 533 41 550 36 q 566 32 595 32 l 605 32 l 605 0 l 455 0 l 455 354 q 455 420 428 459 q 400 498 333 498 q 278 498 248 474 q 217 449 204 410 q 191 370 191 326 l 191 102 q 191 54 209 43 q 227 32 270 32 l 280 32 l 280 0 z"},"h":{"x_min":0,"x_max":617,"ha":617,"o":"m 17 0 l 17 32 l 33 32 q 76 32 94 44 q 113 56 113 105 l 113 655 q 113 704 94 716 q 76 728 37 728 l 22 728 l 22 760 l 177 760 l 177 514 q 177 493 176 472 q 174 450 173 446 l 177 446 q 195 488 232 516 q 270 544 334 544 q 416 544 460 500 q 503 455 503 355 l 503 105 q 503 72 510 56 q 518 41 535 36 q 552 32 580 32 l 590 32 l 590 0 l 439 0 l 439 352 q 439 424 412 461 q 384 498 319 498 q 251 498 214 454 q 177 410 177 326 l 177 102 q 177 54 195 43 q 213 32 256 32 l 267 32 l 267 0 z"},"z":{"x_min":0,"x_max":501,"ha":501,"o":"m 54 0 l 54 32 l 352 494 l 166 494 q 127 494 116 476 q 104 458 96 418 l 94 406 l 62 406 l 71 536 l 432 536 l 432 504 l 133 42 l 338 42 q 374 42 386 62 q 398 82 403 119 l 406 151 l 438 151 l 433 0 z"},"B":{"x_min":0,"x_max":639,"ha":639,"o":"m 44 0 l 44 32 l 70 32 q 105 32 122 46 q 140 59 140 111 l 140 605 q 140 655 122 668 q 105 682 70 682 l 44 682 l 44 714 l 299 714 q 421 714 480 672 q 538 630 538 538 q 538 464 502 428 q 467 393 415 378 l 415 375 q 486 368 527 322 q 568 277 568 196 q 568 96 508 48 q 449 0 329 0 z m 208 394 l 296 394 q 394 394 430 430 q 467 466 467 539 q 467 613 428 644 q 388 675 294 675 l 208 675 z m 208 39 l 324 39 q 418 39 458 77 q 497 115 497 196 q 497 277 460 316 q 424 355 326 355 l 208 355 z"},"K":{"x_min":0,"x_max":681,"ha":681,"o":"m 43 0 l 43 32 l 70 32 q 105 32 122 45 q 140 58 140 109 l 140 605 q 140 655 122 668 q 105 682 70 682 l 43 682 l 43 714 l 305 714 l 305 682 l 278 682 q 243 682 226 668 q 208 655 208 603 l 208 291 l 448 572 q 482 612 494 632 q 506 651 506 664 q 506 676 493 680 q 480 683 454 683 l 454 714 l 646 714 l 646 683 q 609 682 584 658 q 558 635 519 590 l 363 410 l 591 115 q 626 71 650 52 q 674 34 698 34 l 700 34 l 700 0 l 691 0 q 645 0 618 8 q 590 15 568 36 q 546 57 516 96 l 316 357 l 208 246 l 208 111 q 208 59 226 46 q 243 32 278 32 l 306 32 l 306 0 z"},"R":{"x_min":0,"x_max":627,"ha":627,"o":"m 43 0 l 43 32 l 70 32 q 105 32 122 45 q 140 58 140 109 l 140 605 q 140 655 122 668 q 105 682 70 682 l 43 682 l 43 714 l 282 714 q 410 714 470 669 q 529 624 529 526 q 529 470 508 432 q 486 394 452 370 q 417 346 377 334 l 520 115 q 548 73 572 54 q 596 36 627 36 l 634 36 l 634 0 l 624 0 q 572 0 544 8 q 515 15 496 34 q 477 54 454 90 l 310 318 l 208 318 l 208 109 q 208 58 226 45 q 244 32 278 32 l 304 32 l 304 0 z m 208 355 l 284 355 q 373 355 416 398 q 458 442 458 524 q 458 602 420 639 q 383 676 285 676 l 208 676 z"},"T":{"x_min":0,"x_max":590,"ha":590,"o":"m 147 0 l 147 32 l 189 32 q 224 32 242 45 q 260 58 260 109 l 260 675 l 139 675 q 98 675 84 656 q 70 636 67 599 l 63 550 l 25 550 l 31 714 l 558 714 l 564 550 l 526 550 l 522 599 q 519 636 506 656 q 492 675 449 675 l 327 675 l 327 111 q 327 59 344 46 q 362 32 398 32 l 439 32 l 439 0 z"},"P":{"x_min":0,"x_max":585,"ha":585,"o":"m 43 0 l 43 32 l 70 32 q 105 32 122 46 q 140 59 140 111 l 140 605 q 140 655 122 668 q 105 682 70 682 l 43 682 l 43 714 l 310 714 q 430 714 485 659 q 540 604 540 507 q 540 446 516 394 q 492 343 437 312 q 382 281 288 281 l 208 281 l 208 109 q 208 58 226 45 q 244 32 278 32 l 324 32 l 324 0 z m 208 318 l 282 318 q 387 318 428 367 q 469 416 469 505 q 469 590 430 633 q 392 676 301 676 l 208 676 z"},"|":{"x_min":0,"x_max":559,"ha":559,"o":"m 256 -240 l 256 760 l 302 760 l 302 -240 z"},"t":{"x_min":0,"x_max":322,"ha":322,"o":"m 223 -10 q 156 -10 126 24 q 95 58 95 143 l 95 494 l 18 494 l 18 524 q 38 524 57 531 q 76 538 89 551 q 102 565 111 590 q 120 615 125 658 l 159 658 l 159 536 l 288 536 l 288 494 l 159 494 l 159 137 q 159 80 178 55 q 198 30 236 30 q 253 30 267 32 q 281 33 297 36 l 297 1 q 283 -4 262 -7 q 242 -10 223 -10 z"},"M":{"x_min":0,"x_max":924,"ha":924,"o":"m 43 0 l 43 32 l 70 32 q 105 32 122 45 q 140 58 140 109 l 140 605 q 140 655 122 668 q 105 682 70 682 l 43 682 l 43 714 l 229 714 l 464 92 l 698 714 l 881 714 l 881 682 l 855 682 q 820 682 802 668 q 785 655 785 603 l 785 111 q 785 59 802 46 q 820 32 855 32 l 881 32 l 881 0 l 629 0 l 629 32 l 655 32 q 690 32 704 44 q 718 57 720 106 l 720 653 l 476 0 l 430 0 l 185 649 l 185 111 q 185 59 200 46 q 214 32 250 32 l 266 32 l 266 0 z"},"g":{"x_min":0,"x_max":525,"ha":525,"o":"m 234 -240 q 135 -240 85 -200 q 35 -159 35 -88 q 35 -48 52 -20 q 70 8 98 25 q 126 42 157 47 q 136 55 120 74 q 103 92 103 123 q 103 152 120 175 q 137 198 161 213 q 118 233 97 276 q 76 318 76 366 q 76 446 120 495 q 165 544 253 544 q 289 544 318 534 q 348 523 365 508 q 378 524 402 543 q 426 562 457 562 q 485 562 498 548 q 511 534 511 514 q 511 494 502 482 q 492 469 472 469 q 472 488 466 500 q 459 512 442 512 q 425 512 412 504 q 400 497 386 485 q 402 465 412 435 q 423 405 423 364 q 423 290 380 242 q 338 194 253 194 q 241 194 222 196 q 204 198 195 201 q 177 190 164 173 q 151 156 151 130 q 151 105 170 95 q 190 85 230 85 l 323 85 q 404 85 442 46 q 479 8 479 -58 q 479 -141 418 -190 q 358 -240 234 -240 z m 250 231 q 305 231 332 262 q 359 293 359 365 q 359 438 332 472 q 305 506 250 506 q 197 506 168 472 q 140 438 140 364 q 140 296 169 264 q 198 231 250 231 z m 237 -202 q 338 -202 380 -166 q 421 -130 421 -68 q 421 -13 393 6 q 365 25 312 25 l 217 25 q 184 25 156 15 q 127 5 110 -18 q 92 -42 92 -85 q 92 -117 105 -144 q 118 -170 150 -186 q 181 -202 237 -202 z"},"j":{"x_min":0,"x_max":293,"ha":293,"o":"m 153 646 q 135 646 123 657 q 111 668 111 698 q 111 728 123 739 q 135 750 153 750 q 171 750 182 739 q 194 728 194 698 q 194 668 182 657 q 171 646 153 646 z m 5 -240 l 5 -203 l 14 -203 q 49 -203 74 -186 q 99 -168 112 -126 q 125 -83 125 -9 l 125 431 q 125 480 106 492 q 88 504 50 504 l 40 504 l 40 536 l 189 536 l 189 -8 q 189 -98 168 -148 q 146 -199 108 -220 q 70 -240 21 -240 z"},"i":{"x_min":0,"x_max":302,"ha":302,"o":"m 155 646 q 137 646 125 657 q 113 668 113 698 q 113 728 125 739 q 137 750 155 750 q 172 750 184 739 q 196 728 196 698 q 196 668 184 657 q 172 646 155 646 z m 27 0 l 27 32 l 47 32 q 90 32 108 43 q 127 54 127 102 l 127 431 q 127 480 108 492 q 90 504 52 504 l 42 504 l 42 536 l 191 536 l 191 105 q 191 56 210 44 q 228 32 271 32 l 292 32 l 292 0 z"},"y":{"x_min":0,"x_max":557,"ha":557,"o":"m 44 -240 l 44 -203 q 114 -203 156 -180 q 197 -157 222 -112 q 247 -66 269 -1 l 83 453 q 74 475 66 486 q 58 497 46 500 q 33 504 10 504 l 7 504 l 7 536 l 217 536 l 217 504 l 204 504 q 173 504 162 496 q 150 487 150 468 q 150 459 154 446 q 158 434 169 408 l 243 222 q 254 196 266 165 q 277 134 286 106 q 296 77 301 58 q 308 88 320 121 q 332 154 345 191 l 421 412 q 427 429 431 444 q 435 459 435 468 q 435 487 422 496 q 410 504 378 504 l 359 504 l 359 536 l 558 536 l 558 504 l 554 504 q 531 504 518 500 q 505 495 496 482 q 488 468 478 440 l 324 5 q 297 -70 274 -118 q 252 -166 224 -192 q 196 -219 155 -230 q 114 -240 50 -240 z"},"@":{"x_min":0,"x_max":921,"ha":921,"o":"m 413 -142 q 310 -142 234 -104 q 157 -66 115 10 q 73 87 73 203 q 73 317 108 410 q 142 504 204 572 q 266 640 349 677 q 432 714 530 714 q 636 714 710 672 q 783 630 822 557 q 860 484 860 392 q 860 322 842 264 q 825 206 796 164 q 767 122 732 100 q 697 77 662 77 q 616 77 587 104 q 558 130 551 174 l 548 174 q 536 151 517 128 q 498 106 471 92 q 444 77 408 77 q 350 77 308 117 q 267 157 267 243 q 267 293 283 344 q 299 394 330 436 q 362 478 408 504 q 455 529 515 529 q 545 529 570 520 q 596 511 612 498 l 645 520 l 662 520 l 609 277 q 604 258 601 235 q 598 212 598 192 q 598 156 616 136 q 634 117 665 117 q 698 117 732 152 q 767 186 790 249 q 814 312 814 395 q 814 482 778 545 q 741 608 676 642 q 612 675 529 675 q 445 675 372 640 q 300 606 245 544 q 190 481 160 396 q 129 310 129 207 q 129 98 166 30 q 203 -39 268 -70 q 334 -102 420 -102 q 502 -102 564 -75 q 627 -48 669 -16 l 689 -44 q 642 -80 572 -111 q 503 -142 413 -142 z m 419 117 q 454 117 480 138 q 505 159 522 190 q 538 220 543 246 l 590 465 q 582 477 562 486 q 542 495 517 495 q 470 495 435 470 q 400 445 377 405 q 354 365 342 320 q 331 274 331 234 q 331 175 356 146 q 380 117 419 117 z"},".":{"x_min":0,"x_max":225,"ha":225,"o":"m 112 -6 q 92 -6 78 6 q 65 18 65 49 q 65 80 78 92 q 92 104 112 104 q 132 104 146 92 q 160 80 160 49 q 160 18 146 6 q 132 -6 112 -6 z"},"p":{"x_min":0,"x_max":596,"ha":596,"o":"m 21 -240 l 21 -208 l 39 -208 q 65 -208 82 -204 q 98 -199 106 -183 q 114 -167 114 -133 l 114 433 q 114 481 96 492 q 78 504 35 504 l 8 504 l 8 536 l 169 536 l 176 440 l 180 440 q 200 486 238 516 q 275 546 337 546 q 437 546 486 480 q 536 414 536 273 q 536 127 484 58 q 432 -10 338 -10 q 277 -10 238 18 q 199 45 178 93 l 175 93 q 176 71 177 40 q 178 10 178 -25 l 178 -136 q 178 -169 186 -184 q 194 -200 211 -204 q 228 -208 254 -208 l 274 -208 l 274 -240 z m 330 36 q 401 36 436 97 q 471 158 471 271 q 471 385 438 442 q 406 500 328 500 q 243 500 210 440 q 178 380 178 274 q 178 162 211 99 q 244 36 330 36 z"},"X":{"x_min":0,"x_max":619,"ha":619,"o":"m 7 0 l 7 32 l 26 32 q 60 32 77 44 q 94 56 116 92 l 279 360 l 120 632 q 102 662 85 672 q 68 682 41 682 l 20 682 l 20 714 l 256 714 l 256 682 l 241 682 q 210 682 201 675 q 192 668 192 657 q 192 646 198 633 q 204 620 218 595 l 319 420 l 420 593 q 431 612 438 628 q 446 644 446 657 q 446 671 436 676 q 425 682 400 682 l 382 682 l 382 714 l 592 714 l 592 682 l 574 682 q 542 682 526 670 q 510 659 487 622 l 342 381 l 518 83 q 538 52 553 42 q 568 32 594 32 l 612 32 l 612 0 l 377 0 l 377 32 l 397 32 q 424 32 435 39 q 446 46 446 59 q 446 71 438 85 q 431 99 411 133 l 303 320 l 195 141 q 178 111 168 92 q 159 72 159 58 q 159 45 170 38 q 182 32 213 32 l 237 32 l 237 0 z"},"*":{"x_min":0,"x_max":464,"ha":464,"o":"m 196 378 l 215 544 l 71 453 l 44 513 l 204 569 l 44 625 l 71 687 l 216 594 l 196 760 l 263 760 l 242 594 l 388 685 l 415 624 l 254 569 l 415 514 l 388 455 l 242 544 l 264 378 z"},"Y":{"x_min":0,"x_max":586,"ha":586,"o":"m 156 0 l 156 32 l 191 32 q 226 32 244 45 q 261 58 261 109 l 261 323 l 75 634 q 58 662 45 672 q 32 682 3 682 l -8 682 l -8 714 l 223 714 l 223 682 l 188 682 q 161 682 154 675 q 146 668 146 657 q 146 645 152 632 q 159 619 167 606 l 243 476 q 261 445 276 414 q 292 384 304 359 q 312 377 328 404 q 343 432 361 463 l 439 596 q 458 628 458 650 q 458 666 447 674 q 436 682 408 682 l 370 682 l 370 714 l 591 714 l 591 682 l 581 682 q 555 682 540 670 q 525 658 503 620 l 329 324 l 329 111 q 329 59 346 46 q 364 32 399 32 l 434 32 l 434 0 z"},"c":{"x_min":0,"x_max":472,"ha":472,"o":"m 272 -10 q 211 -10 163 18 q 115 47 87 108 q 59 168 59 264 q 59 370 87 432 q 115 493 162 518 q 210 544 271 544 q 314 544 351 531 q 388 518 410 494 q 432 471 432 439 q 432 394 373 392 q 373 437 349 472 q 325 506 269 506 q 226 506 194 484 q 161 462 143 409 q 125 356 125 265 q 125 152 167 94 q 209 36 283 37 q 337 37 370 61 q 404 85 421 120 q 434 108 434 86 q 434 66 416 44 q 398 21 362 6 q 326 -10 272 -10 z"},"!":{"x_min":0,"x_max":305,"ha":305,"o":"m 132 186 l 113 714 l 190 714 l 173 186 z m 152 -6 q 132 -6 118 6 q 105 18 105 49 q 105 80 118 92 q 132 104 152 104 q 172 104 186 92 q 200 80 200 49 q 200 18 186 6 q 172 -6 152 -6 z"},"/":{"x_min":0,"x_max":288,"ha":288,"o":"m 0 -121 l 243 760 l 288 760 l 45 -121 z"},"[":{"x_min":0,"x_max":329,"ha":329,"o":"m 100 -128 l 100 760 l 292 760 l 292 728 l 236 728 q 201 728 184 714 q 166 701 166 649 l 166 -17 q 166 -69 184 -82 q 201 -96 236 -96 l 292 -96 l 292 -128 z"},"6":{"x_min":0,"x_max":559,"ha":559,"o":"m 293 -10 q 226 -10 176 28 q 126 65 98 144 q 70 224 70 350 q 70 467 100 550 q 130 634 186 679 q 243 724 322 724 q 402 724 439 692 q 476 660 476 621 q 476 573 424 573 q 424 626 399 656 q 374 686 322 686 q 239 686 190 609 q 142 532 139 371 q 168 394 208 412 q 249 431 302 431 q 390 431 444 377 q 499 323 499 225 q 499 121 446 56 q 394 -10 293 -10 z m 296 31 q 364 31 398 80 q 431 128 431 220 q 431 302 396 347 q 361 392 291 392 q 238 392 199 369 q 160 346 138 325 q 140 175 180 103 q 221 31 296 31 z"},"r":{"x_min":0,"x_max":441,"ha":441,"o":"m 40 0 l 40 32 l 52 32 q 78 32 94 36 q 111 41 119 57 q 127 73 127 107 l 127 433 q 127 481 108 492 q 90 504 47 504 l 38 504 l 38 536 l 176 536 l 187 431 l 191 431 q 204 460 220 486 q 236 513 262 529 q 288 545 329 545 q 376 545 401 526 q 426 506 426 474 q 426 451 412 436 q 398 421 366 421 q 366 463 352 480 q 338 498 306 498 q 278 498 256 477 q 234 456 220 422 q 206 389 198 350 q 191 311 191 274 l 191 104 q 191 71 199 56 q 207 40 224 36 q 240 32 266 32 l 297 32 l 297 0 z"},"2":{"x_min":0,"x_max":559,"ha":559,"o":"m 59 0 l 59 50 l 242 260 q 296 323 329 368 q 362 414 376 455 q 391 496 391 543 q 391 580 378 612 q 366 645 338 665 q 309 685 262 685 q 191 685 161 644 q 131 604 131 543 q 107 543 90 554 q 74 566 74 595 q 74 627 94 656 q 115 686 157 705 q 199 724 262 724 q 327 724 371 700 q 415 677 437 638 q 459 598 459 550 q 459 499 440 456 q 422 412 386 365 q 350 318 297 259 l 115 55 l 377 55 q 420 55 433 74 q 446 93 451 128 l 454 152 l 486 152 l 481 0 z"},"{":{"x_min":0,"x_max":420,"ha":420,"o":"m 309 -130 q 247 -130 214 -92 q 181 -55 181 12 l 181 181 q 181 227 165 252 q 149 276 122 286 q 96 296 62 299 l 62 333 q 96 335 122 345 q 149 355 165 380 q 181 404 181 450 l 181 619 q 181 686 214 723 q 247 760 309 760 l 359 760 l 359 725 l 331 725 q 285 725 266 698 q 246 670 246 616 l 246 447 q 246 334 140 317 l 140 315 q 246 298 246 185 l 246 14 q 246 -39 266 -67 q 285 -95 331 -95 l 359 -95 l 359 -130 z"},"9":{"x_min":0,"x_max":559,"ha":559,"o":"m 227 -11 q 176 -11 146 1 q 117 13 104 32 q 92 50 92 68 q 92 82 98 91 q 104 100 112 103 q 127 70 156 50 q 184 30 231 30 q 325 30 371 111 q 417 192 420 350 q 394 324 356 302 q 317 280 258 280 q 164 280 112 334 q 60 389 60 485 q 60 554 84 608 q 107 662 152 693 q 198 724 263 724 q 366 724 428 642 q 489 560 489 388 q 489 270 462 180 q 436 91 378 40 q 321 -11 227 -11 z m 268 324 q 324 324 360 348 q 397 371 421 403 q 420 544 378 614 q 337 683 263 683 q 195 683 162 630 q 129 576 129 491 q 129 324 268 324 z"}," ":{"x_min":0,"x_max":260,"ha":260,"o":""},"I":{"x_min":0,"x_max":348,"ha":348,"o":"m 43 0 l 43 32 l 70 32 q 105 32 122 46 q 140 59 140 111 l 140 603 q 140 655 122 668 q 105 682 70 682 l 43 682 l 43 714 l 304 714 l 304 682 l 278 682 q 243 682 226 668 q 208 655 208 603 l 208 111 q 208 59 226 46 q 243 32 278 32 l 304 32 l 304 0 z"},"H":{"x_min":0,"x_max":778,"ha":778,"o":"m 43 0 l 43 32 l 70 32 q 105 32 122 46 q 140 59 140 111 l 140 605 q 140 655 122 668 q 105 682 70 682 l 43 682 l 43 714 l 306 714 l 306 682 l 278 682 q 243 682 226 668 q 208 655 208 603 l 208 393 l 570 393 l 570 603 q 570 655 552 668 q 535 682 500 682 l 473 682 l 473 714 l 735 714 l 735 682 l 708 682 q 673 682 656 668 q 638 655 638 603 l 638 109 q 638 58 656 45 q 674 32 708 32 l 735 32 l 735 0 l 473 0 l 473 32 l 500 32 q 535 32 552 46 q 570 59 570 111 l 570 354 l 208 354 l 208 111 q 208 59 226 46 q 243 32 278 32 l 306 32 l 306 0 z"},"4":{"x_min":0,"x_max":559,"ha":559,"o":"m 238 0 l 238 32 l 277 32 q 312 32 330 46 q 347 59 347 111 l 347 201 l 19 201 l 19 232 l 347 714 l 412 714 l 412 243 l 544 243 l 544 201 l 412 201 l 412 111 q 412 59 430 46 q 447 32 482 32 l 507 32 l 507 0 z m 74 243 l 347 243 l 347 442 q 347 471 348 511 q 348 551 349 592 q 350 632 352 663 q 347 653 334 632 q 322 612 306 588 q 291 563 276 540 q 260 516 249 500 z"},"~":{"x_min":0,"x_max":559,"ha":559,"o":"m 59 273 q 63 300 69 329 q 75 358 87 383 q 99 408 120 424 q 141 440 175 440 q 210 440 237 421 q 264 402 296 373 q 318 350 340 334 q 362 318 384 318 q 417 318 430 353 q 443 388 453 440 l 499 440 q 496 417 490 388 q 483 360 471 334 q 459 307 438 290 q 417 273 384 273 q 351 273 323 291 q 295 309 269 335 q 247 357 226 376 q 204 395 175 395 q 142 395 128 364 q 113 334 104 273 z"},"D":{"x_min":0,"x_max":704,"ha":704,"o":"m 43 0 l 43 32 l 70 32 q 105 32 122 46 q 140 59 140 111 l 140 605 q 140 655 122 668 q 105 682 70 682 l 43 682 l 43 714 l 331 714 q 483 714 564 618 q 645 521 645 351 q 645 187 568 94 q 491 0 333 0 z m 208 39 l 314 39 q 447 39 510 118 q 572 198 572 351 q 572 503 509 589 q 446 675 315 675 l 208 675 z"},"^":{"x_min":0,"x_max":559,"ha":559,"o":"m 54 269 l 263 714 l 293 714 l 504 269 l 454 269 l 278 648 l 104 269 z"},"0":{"x_min":0,"x_max":559,"ha":559,"o":"m 280 -10 q 161 -10 106 86 q 51 181 51 359 q 51 533 106 628 q 160 724 281 724 q 394 724 451 629 q 508 534 508 358 q 508 184 451 87 q 394 -10 280 -10 z m 280 31 q 366 31 402 115 q 438 199 438 358 q 438 516 403 600 q 368 683 281 683 q 191 683 156 598 q 121 514 121 358 q 121 196 158 114 q 194 31 280 31 z"},"F":{"x_min":0,"x_max":572,"ha":572,"o":"m 43 0 l 43 32 l 70 32 q 105 32 122 45 q 140 58 140 109 l 140 605 q 140 655 122 668 q 105 682 70 682 l 43 682 l 43 714 l 519 714 l 524 544 l 487 544 l 483 599 q 480 636 464 656 q 448 675 405 675 l 208 675 l 208 370 l 451 370 l 451 331 l 208 331 l 208 111 q 208 59 226 46 q 243 32 278 32 l 328 32 l 328 0 z"},"`":{"x_min":0,"x_max":249,"ha":249,"o":"m 187 606 q 163 624 134 652 q 104 681 78 710 q 52 738 40 756 l 40 766 l 118 766 q 128 744 144 717 q 160 690 177 664 q 194 638 209 619 l 209 606 z"},"k":{"x_min":0,"x_max":556,"ha":556,"o":"m 19 0 l 19 32 l 33 32 q 76 32 94 44 q 113 56 113 105 l 113 655 q 113 704 94 716 q 76 728 37 728 l 19 728 l 19 760 l 177 760 l 177 374 q 177 352 176 324 q 175 296 174 271 q 174 246 173 233 l 310 380 q 342 414 358 434 q 374 454 380 465 q 385 476 385 484 q 385 497 371 500 q 357 504 327 504 l 327 536 l 525 536 l 525 504 q 500 504 482 496 q 464 487 445 468 q 426 448 398 417 l 309 320 l 439 120 q 470 73 496 52 q 521 32 554 32 l 558 32 l 558 0 l 544 0 q 509 0 486 3 q 463 6 446 16 q 429 26 412 47 q 396 68 374 103 l 266 274 l 177 191 l 177 102 q 177 54 195 43 q 213 32 256 32 l 262 32 l 262 0 z"},"u":{"x_min":0,"x_max":618,"ha":618,"o":"m 277 -10 q 196 -10 154 37 q 113 84 113 185 l 113 433 q 113 481 94 492 q 76 504 33 504 l 19 504 l 19 536 l 177 536 l 177 186 q 177 141 187 108 q 197 74 222 55 q 248 36 295 36 q 344 36 376 59 q 409 82 424 122 q 440 161 440 210 l 440 431 q 440 480 422 492 q 404 504 361 504 l 351 504 l 351 536 l 504 536 l 504 102 q 504 55 522 44 q 541 32 579 32 l 596 32 l 596 0 l 453 0 l 445 86 l 440 86 q 390 -10 277 -10 z"},"]":{"x_min":0,"x_max":329,"ha":329,"o":"m 37 -128 l 37 -96 l 93 -96 q 128 -96 146 -82 q 163 -69 163 -17 l 163 649 q 163 701 146 714 q 128 728 93 728 l 37 728 l 37 760 l 229 760 l 229 -128 z"},"U":{"x_min":0,"x_max":700,"ha":700,"o":"m 352 -10 q 240 -10 175 42 q 110 93 110 215 l 110 605 q 110 655 92 668 q 75 682 40 682 l 14 682 l 14 714 l 274 714 l 274 682 l 248 682 q 213 682 196 668 q 178 655 178 603 l 178 210 q 178 117 228 76 q 278 34 360 34 q 424 34 464 58 q 505 81 524 122 q 544 162 544 212 l 544 605 q 544 655 526 668 q 508 682 474 682 l 448 682 l 448 714 l 685 714 l 685 682 l 660 682 q 625 682 608 668 q 590 655 590 603 l 590 210 q 590 112 530 51 q 470 -10 352 -10 z"},"o":{"x_min":0,"x_max":556,"ha":556,"o":"m 277 -10 q 176 -10 118 58 q 60 127 60 268 q 60 408 116 476 q 172 544 281 544 q 383 544 440 477 q 497 410 497 268 q 497 127 441 58 q 385 -10 277 -10 z m 278 30 q 363 30 397 93 q 431 156 431 268 q 431 387 396 446 q 360 504 280 504 q 196 504 160 445 q 125 386 125 268 q 125 153 160 92 q 196 30 278 30 z"},"N":{"x_min":0,"x_max":748,"ha":748,"o":"m 43 0 l 43 32 l 70 32 q 105 32 122 46 q 140 59 140 111 l 140 605 q 140 655 122 668 q 105 682 70 682 l 43 682 l 43 714 l 198 714 l 574 113 l 574 605 q 574 655 556 668 q 538 682 503 682 l 478 682 l 478 714 l 714 714 l 714 682 l 688 682 q 653 682 636 668 q 618 655 618 603 l 618 0 l 568 0 l 185 611 l 185 111 q 185 59 202 46 q 220 32 255 32 l 281 32 l 281 0 z"},"+":{"x_min":0,"x_max":559,"ha":559,"o":"m 256 143 l 256 335 l 65 335 l 65 380 l 256 380 l 256 572 l 302 572 l 302 380 l 494 380 l 494 335 l 302 335 l 302 143 z"},"G":{"x_min":0,"x_max":682,"ha":682,"o":"m 388 -10 q 276 -10 203 36 q 130 82 94 164 q 58 247 58 358 q 58 469 98 552 q 137 634 212 679 q 287 724 394 724 q 502 724 550 690 q 599 656 599 610 q 599 583 582 568 q 564 553 539 553 q 539 590 526 620 q 512 649 480 666 q 447 684 390 684 q 261 684 196 598 q 131 513 131 358 q 131 256 158 183 q 186 110 246 71 q 305 32 402 32 q 436 32 470 37 q 504 42 527 51 l 527 217 q 527 267 510 280 q 492 294 457 294 l 440 294 l 440 326 l 669 326 l 669 294 l 658 294 q 625 294 610 280 q 595 267 595 215 l 595 31 q 549 10 500 0 q 451 -10 388 -10 z"},"q":{"x_min":0,"x_max":595,"ha":595,"o":"m 315 -240 l 315 -208 l 346 -208 q 372 -208 388 -204 q 405 -199 413 -183 q 421 -167 421 -133 l 421 -36 q 421 -1 422 40 q 422 80 424 99 l 421 99 q 400 50 362 20 q 324 -10 259 -10 q 163 -10 112 56 q 60 122 60 266 q 60 411 112 478 q 164 546 264 546 q 325 546 362 520 q 400 494 420 447 l 425 447 l 436 536 l 574 536 l 574 504 l 565 504 q 522 504 504 492 q 485 480 485 431 l 485 -135 q 485 -184 504 -196 q 522 -208 560 -208 l 570 -208 l 570 -240 z m 269 36 q 341 36 381 88 q 421 140 421 267 q 421 377 390 438 q 358 500 274 500 q 196 500 160 441 q 125 382 125 265 q 125 149 159 92 q 193 36 269 36 z"},"d":{"x_min":0,"x_max":594,"ha":594,"o":"m 261 -10 q 165 -10 112 59 q 60 128 60 267 q 60 545 258 545 q 320 545 360 520 q 399 494 420 450 l 425 450 q 424 476 422 505 q 421 534 421 557 l 421 655 q 421 704 402 716 q 384 728 346 728 l 330 728 l 330 760 l 485 760 l 485 103 q 485 55 504 44 q 522 32 565 32 l 576 32 l 576 0 l 431 0 l 423 100 l 420 100 q 398 50 360 20 q 323 -10 261 -10 z m 268 36 q 350 37 386 96 q 422 155 422 266 q 422 380 389 439 q 356 498 268 498 q 192 498 159 438 q 126 378 126 265 q 126 152 162 94 q 199 35 268 36 z"},"1":{"x_min":0,"x_max":559,"ha":559,"o":"m 110 0 l 110 33 l 193 33 q 228 33 246 46 q 263 59 263 111 l 263 655 q 219 600 184 572 q 150 545 118 545 q 98 545 87 556 q 76 568 76 584 q 116 590 152 611 q 189 632 234 673 l 287 718 l 331 718 l 331 111 q 331 59 348 46 q 365 33 401 33 l 472 33 l 472 0 z"},"5":{"x_min":0,"x_max":559,"ha":559,"o":"m 246 -10 q 181 -10 141 6 q 101 21 82 44 q 64 68 64 92 q 64 139 108 139 q 108 88 146 61 q 184 34 243 34 q 320 34 364 78 q 409 123 409 217 q 409 301 364 343 q 318 385 244 385 q 197 385 166 378 q 136 370 114 360 l 94 365 l 125 714 l 445 714 l 449 581 l 417 581 l 414 610 q 412 640 402 649 q 391 658 355 658 l 160 658 l 139 408 q 158 415 187 420 q 216 426 260 426 q 320 426 370 403 q 420 380 450 334 q 479 288 479 218 q 479 150 452 99 q 425 48 372 19 q 320 -10 246 -10 z"}}}
